<svg width="110" height="116" viewBox="0 0 110 116" fill="none" xmlns="http://www.w3.org/2000/svg">
<circle cx="55" cy="55" r="55" fill="#D9D9D9"/>
<path d="M44.0894 23.8275C48.3656 14.4887 61.6344 14.4887 65.9106 23.8275L87.0548 70.0041C90.6942 77.9523 84.8861 87 76.1442 87H33.8558C25.1139 87 19.3058 77.9523 22.9452 70.0041L44.0894 23.8275Z" fill="white"/>
<ellipse cx="68.5" cy="85" rx="9.5" ry="10" fill="#D9D9D9"/>
<circle cx="41" cy="85" r="10" fill="#D9D9D9"/>
<rect width="22.6218" height="13.6621" rx="6" transform="matrix(0.999998 -0.00185279 0.00139622 0.999999 43 53.0969)" fill="#C1C1C1"/>
<rect width="11.4188" height="6.8962" rx="3.4481" transform="matrix(0.999998 -0.00197823 0.00130768 0.999999 46.1211 56.5957)" fill="#D2D2D2"/>
<rect width="7.4274" height="2.98885" transform="matrix(-0.0091557 -0.999958 0.999904 -0.0138498 64.2725 63.767)" fill="#C1C1C1"/>
<rect x="65.7373" y="64.6797" width="10.3755" height="3.55327" rx="1.77663" transform="rotate(-90 65.7373 64.6797)" fill="#C1C1C1"/>
<circle cx="49.5455" cy="47.9786" r="3.97863" fill="#C1C1C1"/>
<circle cx="59.1711" cy="48.1068" r="3.85028" fill="#C1C1C1"/>
</svg>
