<svg width="53" height="67" viewBox="0 0 53 67" fill="none" xmlns="http://www.w3.org/2000/svg">
<path d="M19.1106 15.8386C21.9643 9.62193 30.798 9.62193 33.6517 15.8386L44.0235 38.4331C46.4562 43.7326 42.5841 49.7706 36.7529 49.7706H16.0093C10.1782 49.7706 6.30608 43.7326 8.73877 38.4331L19.1106 15.8386Z" fill="white"/>
<circle cx="34.9484" cy="49.6347" r="6.11934" fill="#1E1E1E"/>
<circle cx="17.8142" cy="49.6347" r="6.11934" fill="#1E1E1E"/>
<rect width="14.7871" height="8.93045" rx="4.46523" transform="matrix(0.999998 -0.00185279 0.00139622 0.999999 18.2051 30.905)" fill="#1E1E1E"/>
<rect width="7.46411" height="4.50782" rx="2.25391" transform="matrix(0.999998 -0.00197823 0.00130768 0.999999 20.2451 33.1921)" fill="#FF5F5F"/>
<rect width="4.85505" height="1.95371" transform="matrix(-0.0091557 -0.999958 0.999904 -0.0138498 31.7637 37.8799)" fill="#1E1E1E"/>
<rect x="32.7212" y="38.8228" width="6.78215" height="2.32265" rx="1.16133" transform="rotate(-90 32.7212 38.8228)" fill="#1E1E1E"/>
<circle cx="22.484" cy="27.5594" r="2.6007" fill="#1E1E1E"/>
<circle cx="28.7756" cy="27.6433" r="2.5168" fill="#1E1E1E"/>
</svg>
