<svg width="153" height="91" viewBox="0 0 153 91" fill="none" xmlns="http://www.w3.org/2000/svg">
<path d="M34.1106 30.8386C36.9643 24.6219 45.798 24.6219 48.6517 30.8386L59.0235 53.4331C61.4562 58.7326 57.5841 64.7706 51.7529 64.7706H31.0093C25.1782 64.7706 21.3061 58.7326 23.7388 53.4331L34.1106 30.8386Z" fill="white"/>
<circle cx="49.9484" cy="64.6347" r="6.11934" fill="#292929"/>
<circle cx="32.8142" cy="64.6347" r="6.11934" fill="#292929"/>
<rect width="14.7871" height="8.93045" rx="4.46523" transform="matrix(0.999998 -0.00185279 0.00139622 0.999999 33.2051 45.905)" fill="#2D3333"/>
<rect width="7.46411" height="4.50782" rx="2.25391" transform="matrix(0.999998 -0.00197823 0.00130768 0.999999 35.2451 48.1921)" fill="#FF5F5F"/>
<rect width="4.85505" height="1.95371" transform="matrix(-0.0091557 -0.999958 0.999904 -0.0138498 47.0444 52.8818)" fill="#2D3333"/>
<rect x="48" y="53.7822" width="6.78215" height="2.32265" rx="1.16133" transform="rotate(-90 48 53.7822)" fill="#2D3333"/>
<circle cx="37.484" cy="42.5594" r="2.6007" fill="#2D3333"/>
<circle cx="43.7756" cy="42.6433" r="2.5168" fill="#2D3333"/>
<path d="M95.968 37.264H88.6V34.936H85.432V37.264H77.992V39.736H95.968V37.264ZM91.312 44.416C91.312 45.4 89.896 45.856 87.016 45.856C84.136 45.856 82.744 45.4 82.744 44.416C82.744 43.384 84.136 42.952 87.016 42.952C89.896 42.952 91.312 43.384 91.312 44.416ZM79.456 44.416C79.456 46.84 82.288 48.208 87.016 48.208C91.744 48.208 94.6 46.84 94.6 44.416C94.6 41.968 91.744 40.6 87.016 40.6C82.288 40.6 79.456 41.968 79.456 44.416ZM97.048 49.264H77.032V51.808H85.432V57.088H88.6V51.808H97.048V49.264ZM113.774 34.936V57.112H116.942V34.936H113.774ZM99.7101 36.712V51.952H110.606V36.712H107.462V42.064H102.854V36.712H99.7101ZM102.854 44.536H107.462V49.432H102.854V44.536ZM137.436 49.552C138.324 44.848 138.324 41.728 138.324 38.968V36.856H122.268V39.376H135.156C135.156 41.944 135.108 45.016 134.268 49.192L137.436 49.552ZM130.476 51.856V44.248H127.308V51.856H120.252V54.4H140.244V51.856H130.476Z" fill="white"/>
</svg>
