<svg width="120" height="24" viewBox="0 0 120 24" fill="none" xmlns="http://www.w3.org/2000/svg">
<path d="M12.003 19.8791L6.06954 22.391C5.39066 22.6897 4.87471 22.3095 4.9426 21.5763L5.4857 15.1541L1.27662 10.2797C0.774251 9.72299 0.977916 9.12557 1.71111 8.94906L7.98399 7.49625L11.2969 1.98372C11.6907 1.33199 12.3153 1.34557 12.709 1.98372L16.022 7.49625L22.2949 8.94906C23.0281 9.12557 23.2181 9.72299 22.7293 10.2797L18.5203 15.1541L19.0634 21.5627C19.1313 22.3095 18.6153 22.6897 17.9364 22.391L12.003 19.8791Z" fill="#DEDEDE"/>
<path d="M36.003 19.8791L30.0695 22.391C29.3907 22.6897 28.8747 22.3095 28.9426 21.5763L29.4857 15.1541L25.2766 10.2797C24.7743 9.72299 24.9779 9.12557 25.7111 8.94906L31.984 7.49625L35.2969 1.98372C35.6907 1.33199 36.3153 1.34557 36.709 1.98372L40.022 7.49625L46.2949 8.94906C47.0281 9.12557 47.2181 9.72299 46.7293 10.2797L42.5203 15.1541L43.0634 21.5627C43.1313 22.3095 42.6153 22.6897 41.9364 22.391L36.003 19.8791Z" fill="#DEDEDE"/>
<path d="M60.003 19.8791L54.0695 22.391C53.3907 22.6897 52.8747 22.3095 52.9426 21.5763L53.4857 15.1541L49.2766 10.2797C48.7743 9.72299 48.9779 9.12557 49.7111 8.94906L55.984 7.49625L59.2969 1.98372C59.6907 1.33199 60.3153 1.34557 60.709 1.98372L64.022 7.49625L70.2949 8.94906C71.0281 9.12557 71.2181 9.72299 70.7293 10.2797L66.5203 15.1541L67.0634 21.5627C67.1313 22.3095 66.6153 22.6897 65.9364 22.391L60.003 19.8791Z" fill="#DEDEDE"/>
<path d="M84.003 19.8791L78.0695 22.391C77.3907 22.6897 76.8747 22.3095 76.9426 21.5763L77.4857 15.1541L73.2766 10.2797C72.7743 9.72299 72.9779 9.12557 73.7111 8.94906L79.984 7.49625L83.2969 1.98372C83.6907 1.33199 84.3153 1.34557 84.709 1.98372L88.022 7.49625L94.2949 8.94906C95.0281 9.12557 95.2181 9.72299 94.7293 10.2797L90.5203 15.1541L91.0634 21.5627C91.1313 22.3095 90.6153 22.6897 89.9364 22.391L84.003 19.8791Z" fill="#DEDEDE"/>
<path d="M108.003 19.8791L102.07 22.391C101.391 22.6897 100.875 22.3095 100.943 21.5763L101.486 15.1541L97.2766 10.2797C96.7743 9.72299 96.9779 9.12557 97.7111 8.94906L103.984 7.49625L107.297 1.98372C107.691 1.33199 108.315 1.34557 108.709 1.98372L112.022 7.49625L118.295 8.94906C119.028 9.12557 119.218 9.72299 118.729 10.2797L114.52 15.1541L115.063 21.5627C115.131 22.3095 114.615 22.6897 113.936 22.391L108.003 19.8791Z" fill="#DEDEDE"/>
</svg>
