<svg width="100" height="20" viewBox="0 0 100 20" fill="none" xmlns="http://www.w3.org/2000/svg">
<path d="M10.0027 16.5659L5.05812 18.6591C4.49238 18.9081 4.06242 18.5912 4.11899 17.9802L4.57158 12.6284L1.06402 8.5664C0.645372 8.10249 0.815093 7.60464 1.42609 7.45755L6.65349 6.24688L9.41428 1.6531C9.74241 1.10999 10.2629 1.12131 10.591 1.6531L13.3518 6.24688L18.5792 7.45755C19.1902 7.60464 19.3486 8.10249 18.9413 8.5664L15.4337 12.6284L15.8863 17.9689C15.9429 18.5912 15.5129 18.9081 14.9472 18.6591L10.0027 16.5659Z" fill="#FCFF6A"/>
<path d="M30.0027 16.5659L25.0581 18.6591C24.4924 18.9081 24.0624 18.5912 24.119 17.9802L24.5716 12.6284L21.064 8.5664C20.6454 8.10249 20.8151 7.60464 21.4261 7.45755L26.6535 6.24688L29.4143 1.6531C29.7424 1.10999 30.2629 1.12131 30.591 1.6531L33.3518 6.24688L38.5792 7.45755C39.1902 7.60464 39.3486 8.10249 38.9413 8.5664L35.4337 12.6284L35.8863 17.9689C35.9429 18.5912 35.5129 18.9081 34.9472 18.6591L30.0027 16.5659Z" fill="#FCFF6A"/>
<path d="M50.0027 16.5659L45.0581 18.6591C44.4924 18.9081 44.0624 18.5912 44.119 17.9802L44.5716 12.6284L41.064 8.5664C40.6454 8.10249 40.8151 7.60464 41.4261 7.45755L46.6535 6.24688L49.4143 1.6531C49.7424 1.10999 50.2629 1.12131 50.591 1.6531L53.3518 6.24688L58.5792 7.45755C59.1902 7.60464 59.3486 8.10249 58.9413 8.5664L55.4337 12.6284L55.8863 17.9689C55.9429 18.5912 55.5129 18.9081 54.9472 18.6591L50.0027 16.5659Z" fill="#FCFF6A"/>
<path d="M70.0027 16.5659L65.0581 18.6591C64.4924 18.9081 64.0624 18.5912 64.119 17.9802L64.5716 12.6284L61.064 8.5664C60.6454 8.10249 60.8151 7.60464 61.4261 7.45755L66.6535 6.24688L69.4143 1.6531C69.7424 1.10999 70.2629 1.12131 70.591 1.6531L73.3518 6.24688L78.5792 7.45755C79.1902 7.60464 79.3486 8.10249 78.9413 8.5664L75.4337 12.6284L75.8863 17.9689C75.9429 18.5912 75.5129 18.9081 74.9472 18.6591L70.0027 16.5659Z" fill="#FCFF6A"/>
<path d="M90.0027 16.5659L85.0581 18.6591C84.4924 18.9081 84.0624 18.5912 84.119 17.9802L84.5716 12.6284L81.064 8.5664C80.6454 8.10249 80.8151 7.60464 81.4261 7.45755L86.6535 6.24688L89.4143 1.6531C89.7424 1.10999 90.2629 1.12131 90.591 1.6531L93.3518 6.24688L98.5792 7.45755C99.1902 7.60464 99.3486 8.10249 98.9413 8.5664L95.4337 12.6284L95.8863 17.9689C95.9429 18.5912 95.5129 18.9081 94.9472 18.6591L90.0027 16.5659Z" fill="#FCFF6A"/>
</svg>
